<svg id="_1" data-name="1" xmlns="http://www.w3.org/2000/svg" viewBox="0 0 462.06 406.78"><defs><style>.cls-1{fill:#fcd20c;}.cls-2,.cls-3{fill:#fff;}.cls-3{font-size:20.68px;font-family:Montserrat-Regular, Montserrat;letter-spacing:0.25em;}.cls-4{letter-spacing:0.24em;}.cls-5{letter-spacing:0.21em;}.cls-6{letter-spacing:0.24em;}.cls-7{letter-spacing:0.25em;}.cls-8{letter-spacing:0.25em;}.cls-9{letter-spacing:0.24em;}.cls-10{letter-spacing:0.21em;}</style></defs><title>LOGO_BIT_101_BG_ESCURO</title><path class="cls-1" d="M512.15,414.42a3.06,3.06,0,0,1-3.37-3.37V363.12c0-7.2-3.06-10.41-10.26-10.41H480v16.54h6.13c2.14,0,3.37,1.07,3.37,3.36v38.45a3.06,3.06,0,0,1-3.37,3.37H480v16.39h18.53l.61,0,.61,0h18.53V414.42Z" transform="translate(-189.91 -94.25)"/><path class="cls-1" d="M562.68,347.91c21.37,0,38.35,18.23,38.35,43.85,0,25.79-17,43.85-38.35,43.85s-38.21-18.07-38.21-43.85C524.46,366.14,541.45,347.91,562.68,347.91Zm0,70c11.37,0,20.82-10.51,20.82-26.11,0-15.44-9.45-26.11-20.82-26.11S542,376.32,542,391.76C542,407.36,551.45,417.87,562.68,417.87Z" transform="translate(-189.91 -94.25)"/><path class="cls-1" d="M640.17,414.42a3.06,3.06,0,0,1-3.37-3.37V363.12c0-7.2-3.06-10.41-10.26-10.41H608v16.54h6.13c2.14,0,3.37,1.07,3.37,3.36v38.45a3.06,3.06,0,0,1-3.37,3.37H608v16.39h18.53l.61,0,.61,0H646.3V414.42Z" transform="translate(-189.91 -94.25)"/><path class="cls-2" d="M219.54,156.37c0-7.17-3.82-10.51-10.51-10.51H189.91V94.25h57.82c22.46,0,32.49,10,32.49,32.49v70.72c0,11.95-1,20.55-1,20.55h1s21.5-33.93,73.11-33.93c65.94,0,108,52.08,108,127.59,0,77.41-47.31,127.58-111.82,127.58-50.65,0-72.63-34.4-72.63-34.4h-1a127.08,127.08,0,0,1,1,16.25v12.42H219.54ZM339,388.12c33,0,61.16-27.24,61.16-75.5,0-46.35-24.85-76.46-60.69-76.46-31.54,0-61.16,22.94-61.16,76.93C278.32,350.85,298.39,388.12,339,388.12Z" transform="translate(-189.91 -94.25)"/><path class="cls-2" d="M489.72,218.08c0-4.19-2.24-6.15-6.15-6.15H472.39V181.75H506.2c13.13,0,18.72,5.87,18.72,19v87.46c0,3.91,2.24,6.15,6.15,6.15h11.18v29.9H508.44c-13.13,0-18.72-5.59-18.72-19Z" transform="translate(-189.91 -94.25)"/><path class="cls-2" d="M568.44,210H550V181.75h19.28V142.91h34.65v38.84h32.41V210H603.93v57.56c0,23.47,18.44,26.82,28.22,26.82a32.64,32.64,0,0,0,6.43-.56v31a65.25,65.25,0,0,1-10.9.84c-19.84,0-59.24-5.87-59.24-53.65Z" transform="translate(-189.91 -94.25)"/><rect class="cls-1" x="299.35" y="31.62" width="30.74" height="32.69"/><text class="cls-3" transform="translate(26.25 401.36)">L<tspan class="cls-4" x="17.29" y="0">ABOR</tspan><tspan class="cls-5" x="100.29" y="0">A</tspan><tspan class="cls-6" x="119.46" y="0">T</tspan><tspan class="cls-7" x="136.19" y="0">ÓRIO DE SO</tspan><tspan class="cls-8" x="314.59" y="0">F</tspan><tspan class="cls-9" x="332.85" y="0">T</tspan><tspan class="cls-10" x="349.69" y="0">W</tspan><tspan class="cls-7" x="376.99" y="0">ARE</tspan></text></svg>