<svg id="_3" data-name="3" xmlns="http://www.w3.org/2000/svg" viewBox="0 0 367.1 428.21"><defs><style>.cls-1{font-size:13.65px;fill:#fff;font-family:Montserrat-Regular, Montserrat;letter-spacing:0.17em;}.cls-2{letter-spacing:0.17em;}.cls-3{letter-spacing:0.14em;}.cls-4{letter-spacing:0.16em;}.cls-5{letter-spacing:0.17em;}.cls-6{letter-spacing:0.17em;}.cls-7{letter-spacing:0.13em;}.cls-8{fill:#fdd10d;}</style></defs><title>LOGO_BIT_101_ABRE_ASSINATURA_BG_ESCURO</title><text class="cls-1" transform="translate(51.47 424.63)">L<tspan class="cls-2" x="10.39" y="0">ABOR</tspan><tspan class="cls-3" x="61.09" y="0">A</tspan><tspan class="cls-4" x="72.72" y="0">T</tspan><tspan class="cls-2" x="82.74" y="0">ÓRIO DE SO</tspan><tspan class="cls-5" x="190.28" y="0">F</tspan><tspan class="cls-6" x="201.31" y="0">T</tspan><tspan class="cls-7" x="211.4" y="0">W</tspan><tspan class="cls-2" x="228.4" y="0">ARE</tspan></text><path class="cls-8" d="M477,187.25c0,26.07,15.79,43.63,34.55,43.63,19,0,34.78-17.56,34.78-43.63,0-25.79-15.79-43.63-34.78-43.63C492.82,143.62,477,161.45,477,187.25Z" transform="translate(-237.39 -83.53)"/><path class="cls-8" d="M278.78,199.14c0-5.47-2.92-8-8-8H259.18C226,243,230.5,313.16,274.26,360.3l4.52,4.87Z" transform="translate(-237.39 -83.53)"/><path class="cls-8" d="M575.57,183.16q.09,2,.09,4.08c0,43.08-28.38,73.27-64.07,73.27-35.47,0-63.85-30.19-63.85-73.27,0-42.23,27.62-72.42,62.42-73.23-52.65-42.36-130.33-40.89-181.24,6.37l-33.8,31.38h5.16c17.13,0,24.78,7.65,24.78,24.78v53.93c0,9.11-.73,15.67-.73,15.67h.73s16.4-25.87,55.76-25.87c50.29,0,82.36,39.72,82.36,97.3,0,59-36.08,97.3-85.27,97.3-38.63,0-55.39-26.24-55.39-26.24h-.73a96.92,96.92,0,0,1,.73,12.39v10.9C374.62,462.14,458,463.75,512,414.54h-26.1V387.16h10.23c3.58,0,5.63-2,5.63-5.63V317.29c0-3.83-2.05-5.61-5.63-5.61H485.92V284h31c12,0,17.14,5.37,17.14,17.4v80.09c0,3.58,2,5.63,5.63,5.63h1.91l18.81-17.46C613.22,320.64,619,239.13,575.57,183.16ZM425,197.51H405.17l-.66,0-.66,0H384V180h6.55a3.28,3.28,0,0,0,3.6-3.6V135.26c0-2.45-1.31-3.59-3.6-3.59H384V114h19.82c7.7,0,11,3.44,11,11.14v51.26a3.28,3.28,0,0,0,3.6,3.6H425Z" transform="translate(-237.39 -83.53)"/><path class="cls-8" d="M369.88,375.88c25.14,0,46.64-20.77,46.64-57.58,0-35.35-18.95-58.31-46.28-58.31-24.05,0-46.64,17.49-46.64,58.67C323.6,347.46,338.91,375.88,369.88,375.88Z" transform="translate(-237.39 -83.53)"/></svg>