<svg id="Layer_1" data-name="Layer 1" xmlns="http://www.w3.org/2000/svg" viewBox="0 0 367.1 367"><defs><style>.cls-1{fill:#fdd20f;}</style></defs><title>LOGO_BIT_101_ABREV</title><path class="cls-1" d="M475.82,217.21c0,26.07,15.79,43.63,34.55,43.63,19,0,34.78-17.56,34.78-43.63,0-25.79-15.79-43.63-34.78-43.63C491.61,173.58,475.82,191.42,475.82,217.21Z" transform="translate(-236.18 -113.5)"/><path class="cls-1" d="M277.57,229.11c0-5.47-2.92-8-8-8H258c-33.2,51.92-28.69,122,15.07,169.17l4.52,4.87Z" transform="translate(-236.18 -113.5)"/><path class="cls-1" d="M574.36,213.13q.09,2,.09,4.08c0,43.08-28.38,73.27-64.07,73.27-35.47,0-63.85-30.19-63.85-73.27,0-42.23,27.62-72.42,62.42-73.23-52.65-42.36-130.33-40.89-181.24,6.37l-33.8,31.38h5.16c17.13,0,24.78,7.65,24.78,24.78v53.93c0,9.11-.73,15.67-.73,15.67h.73s16.4-25.87,55.76-25.87c50.29,0,82.36,39.72,82.36,97.3,0,59-36.08,97.3-85.27,97.3-38.63,0-55.39-26.24-55.39-26.24h-.73A96.92,96.92,0,0,1,321.3,431v10.9c52.11,50.21,135.51,51.82,189.51,2.61h-26.1V417.12h10.23c3.58,0,5.63-2,5.63-5.63V347.25c0-3.83-2.05-5.61-5.63-5.61H484.71V314h31c12,0,17.14,5.37,17.14,17.4V411.5c0,3.58,2,5.63,5.63,5.63h1.91l18.81-17.46C612,350.6,617.77,269.1,574.36,213.13ZM423.78,227.47H404l-.66,0-.66,0H382.84V209.95h6.55a3.28,3.28,0,0,0,3.6-3.6V165.23c0-2.45-1.31-3.59-3.6-3.59h-6.55V143.95h19.82c7.7,0,11,3.44,11,11.14v51.26a3.28,3.28,0,0,0,3.6,3.6h6.55Z" transform="translate(-236.18 -113.5)"/><path class="cls-1" d="M368.68,405.85c25.14,0,46.64-20.77,46.64-57.58,0-35.35-18.95-58.31-46.28-58.31-24.05,0-46.64,17.49-46.64,58.67C322.39,377.43,337.7,405.85,368.68,405.85Z" transform="translate(-236.18 -113.5)"/></svg>