<svg id="Layer_1" data-name="Layer 1" xmlns="http://www.w3.org/2000/svg" viewBox="0 0 347.71 379.82"><defs><style>.cls-1{fill:#7b7375;}.cls-2{fill:#fcd20c;}.cls-3{font-size:14.95px;fill:#7d787a;font-family:Montserrat-Regular, Montserrat;letter-spacing:0.21em;}.cls-4{letter-spacing:0.2em;}.cls-5{letter-spacing:0.17em;}.cls-6{letter-spacing:0.2em;}.cls-7{letter-spacing:0.2em;}.cls-8{letter-spacing:0.21em;}.cls-9{letter-spacing:0.2em;}.cls-10{letter-spacing:0.17em;}</style></defs><title>LOGO_BIT_101_ABRE_ASS_02</title><path class="cls-1" d="M271.68,190.87c0-5.95-3.17-8.73-8.73-8.73H247.09V139.31h48c18.64,0,27,8.33,27,27V225c0,9.91-.79,17.06-.79,17.06h.79s17.85-28.16,60.68-28.16c54.73,0,89.64,43.23,89.64,105.9,0,64.25-39.27,105.9-92.81,105.9-42,0-60.29-28.56-60.29-28.56h-.79a105.47,105.47,0,0,1,.79,13.49v10.31H271.68Zm99.16,192.36c27.37,0,50.77-22.61,50.77-62.67,0-38.47-20.62-63.46-50.37-63.46-26.18,0-50.77,19-50.77,63.86C320.46,352.3,337.12,383.23,370.84,383.23Z" transform="translate(-247.09 -98.18)"/><path class="cls-2" d="M423.68,170a3.57,3.57,0,0,1-3.92-3.92V110.3c0-8.38-3.57-12.12-11.94-12.12H386.25v19.25h7.13c2.49,0,3.92,1.24,3.92,3.91V166.1a3.57,3.57,0,0,1-3.92,3.92h-7.13v19.07h21.57l.71,0,.71,0h21.57V170Z" transform="translate(-247.09 -98.18)"/><path class="cls-2" d="M555.61,395.51c-3.9,0-6.13-2.23-6.13-6.13V302.21c0-13.09-5.57-18.94-18.66-18.94h-33.7v30.08h11.14c3.89,0,6.12,1.95,6.13,6.11v69.92c0,3.9-2.23,6.13-6.13,6.13H497.13v29.8h33.7c.39,0,.74,0,1.11,0s.73,0,1.11,0h33.7v-29.8Z" transform="translate(-247.09 -98.18)"/><path class="cls-2" d="M525.06,98.18c38.85,0,69.74,33.15,69.74,79.74,0,46.89-30.88,79.74-69.74,79.74-38.6,0-69.49-32.85-69.49-79.74C455.57,131.33,486.46,98.18,525.06,98.18Zm0,127.23c20.67,0,37.86-19.11,37.86-47.49,0-28.07-17.19-47.49-37.86-47.49-20.42,0-37.61,19.41-37.61,47.49C487.45,206.3,504.64,225.41,525.06,225.41Z" transform="translate(-247.09 -98.18)"/><text class="cls-3" transform="translate(24.07 375.9)">L<tspan class="cls-4" x="11.9" y="0">ABOR</tspan><tspan class="cls-5" x="69.49" y="0">A</tspan><tspan class="cls-6" x="82.74" y="0">T</tspan><tspan class="cls-7" x="94.24" y="0">ÓRIO DE SO</tspan><tspan class="cls-8" x="217.19" y="0">F</tspan><tspan class="cls-9" x="229.79" y="0">T</tspan><tspan class="cls-10" x="241.35" y="0">W</tspan><tspan class="cls-4" x="260.49" y="0">ARE</tspan></text></svg>