<?xml version="1.0" encoding="UTF-8" standalone="no"?>
<!-- Generator: Adobe Illustrator 21.0.2, SVG Export Plug-In . SVG Version: 6.00 Build 0)  -->

<svg
   xmlns:dc="http://purl.org/dc/elements/1.1/"
   xmlns:cc="http://creativecommons.org/ns#"
   xmlns:rdf="http://www.w3.org/1999/02/22-rdf-syntax-ns#"
   xmlns:svg="http://www.w3.org/2000/svg"
   xmlns="http://www.w3.org/2000/svg"
   xmlns:sodipodi="http://sodipodi.sourceforge.net/DTD/sodipodi-0.dtd"
   xmlns:inkscape="http://www.inkscape.org/namespaces/inkscape"
   version="1.1"
   id="Layer_1"
   x="0px"
   y="0px"
   viewBox="0 0 529.09996 201.98439"
   xml:space="preserve"
   sodipodi:docname="IMOVEAPP_LOGO.svg"
   width="529.09998"
   height="201.98439"
   inkscape:version="0.92.3 (2405546, 2018-03-11)"><metadata
   id="metadata35"><rdf:RDF><cc:Work
       rdf:about=""><dc:format>image/svg+xml</dc:format><dc:type
         rdf:resource="http://purl.org/dc/dcmitype/StillImage" /><dc:title></dc:title></cc:Work></rdf:RDF></metadata><defs
   id="defs33" /><sodipodi:namedview
   pagecolor="#ffffff"
   bordercolor="#666666"
   borderopacity="1"
   objecttolerance="10"
   gridtolerance="10"
   guidetolerance="10"
   inkscape:pageopacity="0"
   inkscape:pageshadow="2"
   inkscape:window-width="1920"
   inkscape:window-height="1054"
   id="namedview31"
   showgrid="false"
   fit-margin-top="0"
   fit-margin-left="0"
   fit-margin-right="0"
   fit-margin-bottom="0"
   inkscape:zoom="0.39643878"
   inkscape:cx="274.21738"
   inkscape:cy="89.034391"
   inkscape:window-x="0"
   inkscape:window-y="0"
   inkscape:window-maximized="1"
   inkscape:current-layer="Layer_1" />
<style
   type="text/css"
   id="style2">
	.st0{fill:#EF3D3C;}
	.st1{fill:#B73C3D;}
	.st2{fill:#666766;}
</style>
<g
   id="g28"
   transform="translate(-154.3,-184.7)">
	<path
   class="st0"
   d="M 266.3,365.1 V 360 c 0,-18.1 0.1,-36.2 0,-54.3 -0.1,-7.9 2.6,-14.2 8.3,-19.8 15.5,-15 30.7,-30.2 46,-45.3 9.7,-9.5 18.9,-10.2 30.3,-2.6 14.7,9.8 29.5,19.5 44.3,29.1 6.7,4.4 9.6,10.5 9.6,18.4 -0.1,20.3 -0.2,40.6 0,60.9 0.2,18 -20.6,-2.6 -20.6,-3.6 0,-18.2 -0.1,-36.5 0.1,-54.7 0,-2.9 -0.9,-4.5 -3.2,-6 -13.8,-8.9 -27.6,-18 -41.2,-27.1 -2.1,-1.4 -3.5,-1.3 -5.2,0.5 -15.1,15 -30.3,29.8 -45.3,44.9 -1.3,1.3 -2,3.6 -2.1,5.4 -0.1,19.7 -0.1,39.5 -0.1,59.2 0,8.2 -2.7,14.9 -10,18.9 -7.5,4.2 -15,3.5 -22.1,-1.1 -12.4,-8.1 -24.7,-16.2 -37.1,-24.3 -7,-4.6 -10.3,-10.8 -10.2,-19.3 0.2,-24.8 0.2,-49.6 0,-74.5 0,-6.7 2.4,-12 7,-16.5 16,-15.8 32.1,-31.5 48.1,-47.3 8,-7.9 17.8,-8.9 27.3,-2.8 10.4,6.7 13.5,8.8 23.8,15.5 5,3.3 5,7.2 0,10.7 -1,0.7 -3.1,2 -3.1,2 0,0 -6.9,5.2 -14.2,0.5 -7.7,-5 -8.3,-5.3 -15.8,-10.5 -2.2,-1.5 -3.4,-1.3 -5.2,0.5 -15.1,15 -30.3,29.8 -45.3,44.8 -1.1,1.1 -1.9,3.1 -1.9,4.7 -0.1,23.9 -0.1,47.7 0,71.6 0,1.4 0.8,3.4 1.9,4.1 11.4,7.6 22.9,15.1 34.3,22.6 0.1,0.3 0.4,0.3 1.6,0.5"
   id="path4"
   inkscape:connector-curvature="0"
   style="fill:#ef3d3c" />
	<path
   class="st1"
   d="m 210.4,351.1 c -0.6,-1.5 -2.5,-3.2 -2.8,-11.8 -0.8,-24.8 0.2,-49.6 0,-74.5 0,-6.7 2.4,-12 7,-16.5 16,-15.8 32.1,-31.5 48.1,-47.3 8,-7.9 17.8,-8.9 27.3,-2.8 10.4,6.7 13.5,8.8 23.8,15.5 5,3.3 5,7.2 0,10.7 -1,0.7 -3.1,2 -3.1,2 0,0 -6.9,5.2 -14.2,0.5 -7.7,-5 -8.3,-5.3 -15.8,-10.5 -2.2,-1.5 -3.4,-1.3 -5.2,0.5 -15.1,15 -30.3,29.8 -45.3,44.8 -1.1,1.1 -1.9,3.1 -1.9,4.7 -0.1,23.1 0,48.9 0,72 0,0.2 0.2,0.9 0.6,1.9"
   id="path6"
   inkscape:connector-curvature="0"
   style="fill:#b73c3d" />
	<g
   id="g10">
		<path
   class="st0"
   d="m 329.7,354.6 c -1.8,-1.8 -2.8,-4.3 -2.8,-7.5 v -25.6 c 0,-3 0.9,-5.5 2.8,-7.4 1.8,-1.9 4.3,-2.9 7.3,-2.9 3.2,0 5.7,0.9 7.5,2.8 1.8,1.8 2.8,4.3 2.8,7.5 v 25.6 c 0,3.2 -0.9,5.7 -2.7,7.5 -1.8,1.8 -4.3,2.8 -7.6,2.8 -3,0 -5.4,-0.9 -7.3,-2.8 z"
   id="path8"
   inkscape:connector-curvature="0"
   style="fill:#ef3d3c" />
	</g>
	<path
   class="st2"
   d="m 156.8,272 c -1.7,-1.5 -2.5,-3.6 -2.5,-6.1 0,-2.5 0.8,-4.5 2.5,-6 1.7,-1.5 3.9,-2.3 6.7,-2.3 2.7,0 5,0.8 6.7,2.3 1.7,1.5 2.6,3.5 2.6,6 0,2.5 -0.8,4.5 -2.5,6.1 -1.7,1.5 -3.9,2.3 -6.7,2.3 -2.8,0 -5.1,-0.7 -6.8,-2.3 z m 1.2,74.6 c -1.5,-1.3 -2.2,-3.1 -2.2,-5.6 v -48.2 c 0,-2.4 0.7,-4.2 2.2,-5.5 1.5,-1.2 3.3,-1.9 5.6,-1.9 2.2,0 4.1,0.6 5.6,1.9 1.5,1.2 2.2,3.1 2.2,5.5 V 341 c 0,2.4 -0.8,4.3 -2.2,5.6 -1.5,1.3 -3.4,1.9 -5.6,1.9 -2.3,0 -4.1,-0.6 -5.6,-1.9 z"
   id="path12"
   inkscape:connector-curvature="0"
   style="fill:#666766" />
	<path
   class="st2"
   d="m 454,344.9 c -4.7,-2.6 -8.3,-6.3 -10.9,-11.1 -2.6,-4.8 -3.9,-10.5 -3.9,-16.9 0,-6.4 1.3,-12 3.9,-16.8 2.6,-4.8 6.2,-8.5 10.9,-11.1 4.7,-2.6 10.2,-3.9 16.4,-3.9 6.2,0 11.7,1.3 16.4,3.9 4.7,2.6 8.3,6.3 10.9,11.1 2.5,4.8 3.8,10.4 3.8,16.8 0,6.4 -1.3,12 -3.8,16.9 -2.5,4.8 -6.2,8.5 -10.9,11.1 -4.7,2.6 -10.2,3.9 -16.4,3.9 -6.3,0 -11.7,-1.3 -16.4,-3.9 z m 27.9,-13.2 c 2.7,-3.3 4,-8.2 4,-14.7 0,-6.4 -1.3,-11.3 -4,-14.7 -2.7,-3.4 -6.5,-5.1 -11.5,-5.1 -5,0 -8.8,1.7 -11.6,5.1 -2.7,3.4 -4.1,8.3 -4.1,14.7 0,6.5 1.3,11.4 4,14.7 2.7,3.3 6.5,5 11.5,5 5.2,0 9,-1.7 11.7,-5 z"
   id="path14"
   inkscape:connector-curvature="0"
   style="fill:#666766" />
	<path
   class="st2"
   d="m 584.7,286.6 c 1.1,-0.8 2.4,-1.1 3.7,-1.1 1.9,0 3.6,0.6 5.2,1.9 1.5,1.3 2.3,2.9 2.3,4.8 0,1 -0.3,2 -0.8,3 L 572,343.5 c -0.8,1.6 -1.8,2.8 -3.2,3.6 -1.4,0.8 -2.9,1.3 -4.6,1.3 -1.6,0 -3.1,-0.4 -4.6,-1.3 -1.5,-0.8 -2.6,-2 -3.3,-3.6 l -23.2,-48.4 c -0.4,-0.8 -0.6,-1.8 -0.6,-2.9 0,-1.9 0.8,-3.5 2.4,-4.9 1.6,-1.3 3.5,-2 5.6,-2 3,0 5.2,1.5 6.6,4.4 l 17.5,38.6 17.4,-38.5 c 0.6,-1.4 1.5,-2.5 2.7,-3.2 z"
   id="path16"
   inkscape:connector-curvature="0"
   style="fill:#666766" />
	<path
   class="st2"
   d="m 681.7,332.7 c 0.9,1.1 1.3,2.5 1.3,4.3 0,2.6 -1.5,4.7 -4.6,6.5 -2.8,1.6 -6,2.8 -9.6,3.8 -3.6,1 -7,1.4 -10.2,1.4 -9.8,0 -17.5,-2.8 -23.2,-8.4 -5.7,-5.6 -8.6,-13.3 -8.6,-23.1 0,-6.2 1.2,-11.7 3.7,-16.5 2.5,-4.8 6,-8.5 10.5,-11.2 4.5,-2.6 9.6,-4 15.3,-4 5.5,0 10.2,1.2 14.3,3.6 4.1,2.4 7.2,5.8 9.4,10.2 2.2,4.4 3.4,9.6 3.4,15.5 0,3.6 -1.6,5.3 -4.7,5.3 H 642 c 0.5,5.7 2.1,9.9 4.8,12.6 2.7,2.7 6.7,4 11.9,4 2.7,0 5,-0.3 7,-1 2,-0.7 4.3,-1.6 6.9,-2.7 2.5,-1.3 4.3,-2 5.5,-2 1.6,0 2.7,0.6 3.6,1.7 z m -35,-32.3 c -2.5,2.7 -4.1,3.9 -4.6,8.8 h 28.1 c -0.2,-5 -1.3,-6.3 -3.7,-8.9 -2.3,-2.6 -5.6,-3.9 -9.7,-3.9 -4.2,0 -7.6,1.3 -10.1,4 z"
   id="path18"
   inkscape:connector-curvature="0"
   style="fill:#666766" />
	<g
   id="g26">
		<path
   class="st2"
   d="m 443.5,221 c 0,1 -0.4,1.9 -1.3,2.7 -0.9,0.8 -1.8,1.1 -2.9,1.1 -0.7,0 -1.4,-0.2 -2,-0.6 -0.6,-0.4 -1.1,-1 -1.5,-1.8 l -3,-6.6 h -19 l -3,6.6 c -0.3,0.8 -0.8,1.4 -1.4,1.8 -0.6,0.4 -1.3,0.6 -2,0.6 -1.1,0 -2.1,-0.4 -2.9,-1.1 -0.9,-0.7 -1.3,-1.6 -1.3,-2.7 0,-0.5 0.1,-1.1 0.4,-1.8 l 15.1,-31.8 c 0.4,-0.9 1,-1.6 1.9,-2 0.8,-0.5 1.7,-0.7 2.6,-0.7 1,0 1.9,0.2 2.7,0.7 0.8,0.5 1.5,1.2 1.9,2 l 15.1,31.8 c 0.5,0.7 0.6,1.3 0.6,1.8 z M 416.9,209.2 H 430 l -6.5,-14.6 z"
   id="path20"
   inkscape:connector-curvature="0"
   style="fill:#666766" />
		<path
   class="st2"
   d="m 471,198.2 c 1.9,1.2 3.3,2.9 4.3,5.1 1,2.2 1.5,4.7 1.5,7.5 0,2.8 -0.5,5.3 -1.5,7.5 -1,2.1 -2.5,3.8 -4.3,5 -1.8,1.2 -3.9,1.7 -6.3,1.7 -1.9,0 -3.6,-0.4 -5.1,-1.1 -1.5,-0.8 -2.7,-1.8 -3.5,-3.2 v 10.6 c 0,1.1 -0.4,2 -1.1,2.7 -0.7,0.7 -1.7,1 -3,1 -1.3,0 -2.4,-0.4 -3.2,-1.1 -0.8,-0.7 -1.2,-1.6 -1.2,-2.8 v -30.6 c 0,-1.2 0.4,-2.2 1.1,-2.9 0.8,-0.7 1.8,-1.1 3.1,-1.1 1.3,0 2.3,0.4 3,1.1 0.7,0.7 1.1,1.7 1.1,2.9 v 0.4 c 0.8,-1.4 2,-2.5 3.5,-3.3 1.5,-0.8 3.3,-1.2 5.2,-1.2 2.5,0 4.6,0.6 6.4,1.8 z m -4.1,18.4 c 1.1,-1.3 1.6,-3.2 1.6,-5.7 0,-2.5 -0.5,-4.5 -1.6,-5.9 -1.1,-1.4 -2.6,-2.1 -4.6,-2.1 -2,0 -3.5,0.7 -4.6,2 -1.1,1.4 -1.6,3.3 -1.6,5.9 0,2.5 0.5,4.4 1.6,5.8 1.1,1.4 2.6,2 4.6,2 2,0 3.5,-0.7 4.6,-2 z"
   id="path22"
   inkscape:connector-curvature="0"
   style="fill:#666766" />
		<path
   class="st2"
   d="m 505.4,198.2 c 1.9,1.2 3.3,2.9 4.3,5.1 1,2.2 1.5,4.7 1.5,7.5 0,2.8 -0.5,5.3 -1.5,7.5 -1,2.1 -2.5,3.8 -4.3,5 -1.8,1.2 -3.9,1.7 -6.3,1.7 -1.9,0 -3.6,-0.4 -5.1,-1.1 -1.5,-0.8 -2.7,-1.8 -3.5,-3.2 v 10.6 c 0,1.1 -0.4,2 -1.1,2.7 -0.7,0.7 -1.7,1 -3,1 -1.3,0 -2.4,-0.4 -3.2,-1.1 -0.8,-0.7 -1.2,-1.6 -1.2,-2.8 v -30.6 c 0,-1.2 0.4,-2.2 1.1,-2.9 0.8,-0.7 1.8,-1.1 3.1,-1.1 1.3,0 2.3,0.4 3,1.1 0.7,0.7 1.1,1.7 1.1,2.9 v 0.4 c 0.8,-1.4 2,-2.5 3.5,-3.3 1.5,-0.8 3.3,-1.2 5.2,-1.2 2.5,0 4.6,0.6 6.4,1.8 z m -4.2,18.4 c 1.1,-1.3 1.6,-3.2 1.6,-5.7 0,-2.5 -0.5,-4.5 -1.6,-5.9 -1.1,-1.4 -2.6,-2.1 -4.6,-2.1 -2,0 -3.5,0.7 -4.6,2 -1.1,1.4 -1.6,3.3 -1.6,5.9 0,2.5 0.5,4.4 1.6,5.8 1.1,1.4 2.6,2 4.6,2 2,0 3.6,-0.7 4.6,-2 z"
   id="path24"
   inkscape:connector-curvature="0"
   style="fill:#666766" />
	</g>
</g>
</svg>