<?xml version="1.0" encoding="UTF-8" standalone="no"?>
<!-- Generator: Adobe Illustrator 21.0.2, SVG Export Plug-In . SVG Version: 6.00 Build 0)  -->

<svg
   xmlns:dc="http://purl.org/dc/elements/1.1/"
   xmlns:cc="http://creativecommons.org/ns#"
   xmlns:rdf="http://www.w3.org/1999/02/22-rdf-syntax-ns#"
   xmlns:svg="http://www.w3.org/2000/svg"
   xmlns="http://www.w3.org/2000/svg"
   xmlns:sodipodi="http://sodipodi.sourceforge.net/DTD/sodipodi-0.dtd"
   xmlns:inkscape="http://www.inkscape.org/namespaces/inkscape"
   version="1.1"
   id="Layer_1"
   inkscape:version="0.92.3 (2405546, 2018-03-11)"
   sodipodi:docname="logo.svg"
   x="0px"
   y="0px"
   viewBox="0 0 255 49.1"
   style="enable-background:new 0 0 255 49.1;"
   xml:space="preserve"><metadata
   id="metadata19"><rdf:RDF><cc:Work
       rdf:about=""><dc:format>image/svg+xml</dc:format><dc:type
         rdf:resource="http://purl.org/dc/dcmitype/StillImage" /><dc:title /></cc:Work></rdf:RDF></metadata><defs
   id="defs17" />
<style
   type="text/css"
   id="style2">
	.st0{fill:#FFFFFF;}
	.st1{display:none;fill:#FFFFFF;}
	.st2{display:none;fill:#FCD30C;}
	.st3{fill:#FCD30C;}
</style>
<sodipodi:namedview
   bordercolor="#666666"
   borderopacity="1"
   gridtolerance="10"
   guidetolerance="10"
   id="namedview953"
   inkscape:current-layer="g1516"
   inkscape:cx="91.345601"
   inkscape:cy="-4.4291647"
   inkscape:pageopacity="0"
   inkscape:pageshadow="2"
   inkscape:window-height="731"
   inkscape:window-maximized="1"
   inkscape:window-width="1366"
   inkscape:window-x="288"
   inkscape:window-y="1080"
   inkscape:zoom="1.4866979"
   objecttolerance="10"
   pagecolor="#ffffff"
   showgrid="false"
   inkscape:pagecheckerboard="true">
	</sodipodi:namedview>
<g
   id="g950">
	<g
   id="g1516"
   transform="translate(-275.10632,-17.488421)">
		<path
   id="path934"
   inkscape:connector-curvature="0"
   class="st0"
   d="M281.2,27.5c0-1-0.5-1.4-1.4-1.4h-2.7v-7h7.9    c3.1,0,4.4,1.4,4.4,4.4v9.6c0,1.6-0.1,2.8-0.1,2.8h0.1c0,0,2.9-4.6,9.9-4.6c9,0,14.7,7.1,14.7,17.4c0,10.5-6.4,17.4-15.2,17.4    c-6.9,0-9.9-4.7-9.9-4.7h-0.1c0,0,0.1,0.9,0.1,2.2v1.7h-7.7L281.2,27.5z M297.4,59.1c4.5,0,8.3-3.7,8.3-10.3    c0-6.3-3.4-10.4-8.3-10.4c-4.3,0-8.3,3.1-8.3,10.5C289.2,54,291.9,59.1,297.4,59.1z" />
		<path
   id="path936"
   inkscape:connector-curvature="0"
   class="st0"
   d="M321.9,40.6c0-1-0.5-1.4-1.4-1.4h-2.7v-7h7.9    c3.1,0,4.4,1.4,4.4,4.4v20.3c0,0.9,0.5,1.4,1.4,1.4h2.6v7h-7.9c-3.1,0-4.4-1.3-4.4-4.4L321.9,40.6z M322.3,19.1h7.2v7.6h-7.2V19.1    z" />
		<path
   id="path938"
   inkscape:connector-curvature="0"
   class="st0"
   d="M341.2,38.7h-4.3v-6.6h4.5v-9h8.1v9h7.5v6.6h-7.5v13.4    c0,5.5,4.3,6.2,6.6,6.2c0.9,0,1.5-0.1,1.5-0.1v7.2c0,0-1,0.2-2.5,0.2c-4.6,0-13.8-1.4-13.8-12.5L341.2,38.7z" />
		<path
   id="path940_1_"
   inkscape:connector-curvature="0"
   class="st1"
   d="M364.3,57h8v8.3h-8V57z" />
		<path
   id="path940_2_"
   inkscape:connector-curvature="0"
   class="st2"
   d="M372.3,57v8.3h-8" />
		<path
   id="path940_3_"
   inkscape:connector-curvature="0"
   class="st3"
   d="m 364.3,57.977998 h 7.28657 v 7.559813 H 364.3 Z"
   style="fill:#fcd30c;stroke-width:0.91082078" />
		
		
		
	
<g
   aria-label="101"
   transform="scale(0.9981864,1.0018169)"
   style="font-style:normal;font-variant:normal;font-weight:bold;font-stretch:normal;font-size:40.81490326px;line-height:1.25;font-family:Lato;-inkscape-font-specification:'Lato Bold';letter-spacing:0px;word-spacing:0px;fill:#fcd30c;fill-opacity:1;stroke:none;stroke-width:1.02037251"
   id="text828"><path
     d="m 379.01694,65.242317 h 28.53778 v -7.248726 h -9.99149 V 18.87659 h -7.70585 l -11.62409,11.166957 4.9631,5.224307 3.72231,-3.526407 c 1.50199,-1.501988 2.02442,-2.612154 2.02442,-2.612154 h 0.13061 c 0,0 -0.0653,1.567293 -0.0653,3.134585 v 25.729713 h -9.99149 z"
     style="font-style:normal;font-variant:normal;font-weight:600;font-stretch:normal;font-size:65.30384064px;font-family:Museo;-inkscape-font-specification:'Museo Semi-Bold';fill:#fcd30c;fill-opacity:1;stroke-width:1.02037251"
     id="path846" /><path
     d="m 428.62031,66.025963 c 12.66894,0 16.78309,-10.70983 16.78309,-24.031813 0,-13.321984 -4.11415,-23.901206 -16.78309,-23.901206 -12.66895,0 -16.78309,10.579222 -16.78309,23.901206 0,13.321983 4.11414,24.031813 16.78309,24.031813 z m 0,-7.705853 c -6.33447,0 -8.16298,-7.183422 -8.16298,-16.32596 0,-9.01193 1.82851,-16.130049 8.16298,-16.130049 6.33447,0 8.16298,7.118119 8.16298,16.130049 0,9.142538 -1.82851,16.32596 -8.16298,16.32596 z"
     style="font-style:normal;font-variant:normal;font-weight:600;font-stretch:normal;font-size:65.30384064px;font-family:Museo;-inkscape-font-specification:'Museo Semi-Bold';fill:#fcd30c;fill-opacity:1;stroke-width:1.02037251"
     id="path848" /><path
     d="m 451.71848,65.242317 h 28.53778 v -7.248726 h -9.99149 V 18.87659 h -7.70585 l -11.62409,11.166957 4.96309,5.224307 3.72232,-3.526407 c 1.50199,-1.501988 2.02442,-2.612154 2.02442,-2.612154 h 0.13061 c 0,0 -0.0653,1.567293 -0.0653,3.134585 v 25.729713 h -9.99149 z"
     style="font-style:normal;font-variant:normal;font-weight:600;font-stretch:normal;font-size:65.30384064px;font-family:Museo;-inkscape-font-specification:'Museo Semi-Bold';fill:#fcd30c;fill-opacity:1;stroke-width:1.02037251"
     id="path850" /></g></g>
</g>
</svg>